<?xml version="1.0" standalone="no"?>
<!DOCTYPE svg PUBLIC "-//W3C//DTD SVG 20010904//EN"
 "http://www.w3.org/TR/2001/REC-SVG-20010904/DTD/svg10.dtd">
<svg version="1.0" xmlns="http://www.w3.org/2000/svg"
 width="24.000000pt" height="24.000000pt" viewBox="0 0 24.000000 24.000000"
 preserveAspectRatio="xMidYMid meet">

<g transform="translate(0.000000,24.000000) scale(0.100000,-0.100000)"
fill="#000000" stroke="none">
<path d="M16 224 c-12 -12 -16 -37 -16 -104 0 -116 4 -120 120 -120 116 0 120
4 120 120 0 116 -4 120 -120 120 -67 0 -92 -4 -104 -16z m188 -20 c22 -22 22
-146 0 -168 -11 -12 -35 -16 -84 -16 -90 0 -100 10 -100 100 0 90 10 100 100
100 49 0 73 -4 84 -16z"/>
<path d="M117 183 c-4 -3 -7 -17 -7 -30 0 -14 -6 -23 -15 -23 -8 0 -15 -4 -15
-10 0 -5 7 -10 15 -10 10 0 15 -10 15 -30 0 -16 5 -30 10 -30 6 0 10 13 10 29
0 16 6 32 13 34 9 4 8 8 -3 16 -12 9 -13 14 -2 31 6 11 12 22 12 25 0 7 -26 6
-33 -2z"/>
</g>
</svg>
