<?xml version="1.0" standalone="no"?>
<!DOCTYPE svg PUBLIC "-//W3C//DTD SVG 20010904//EN"
 "http://www.w3.org/TR/2001/REC-SVG-20010904/DTD/svg10.dtd">
<svg version="1.0" xmlns="http://www.w3.org/2000/svg"
 width="24.000000pt" height="24.000000pt" viewBox="0 0 24.000000 24.000000"
 preserveAspectRatio="xMidYMid meet">

<g transform="translate(0.000000,24.000000) scale(0.100000,-0.100000)"
fill="#000000" stroke="none">
<path d="M16 224 c-12 -12 -16 -37 -16 -104 0 -116 4 -120 120 -120 116 0 120
4 120 120 0 116 -4 120 -120 120 -67 0 -92 -4 -104 -16z m199 -104 l0 -95 -27
-3 c-27 -3 -28 -1 -28 37 0 30 4 41 15 41 22 0 19 40 -2 41 -17 1 -17 2 0 6 9
2 17 13 17 24 0 14 -7 19 -29 19 -40 0 -46 -13 -43 -98 l2 -73 -48 3 -47 3 -3
84 c-2 46 0 90 2 98 4 11 27 13 98 11 l93 -3 0 -95z m-35 50 c0 -5 -7 -10 -15
-10 -8 0 -15 -7 -15 -15 0 -8 7 -15 15 -15 8 0 15 -4 15 -10 0 -5 -7 -10 -15
-10 -11 0 -15 -12 -15 -50 0 -27 -4 -50 -10 -50 -13 0 -18 124 -5 158 5 14 45
17 45 2z"/>
</g>
</svg>
